<?xml version="1.0" encoding="utf-8"?>
<!-- Generator: Adobe Illustrator 18.1.1, SVG Export Plug-In . SVG Version: 6.00 Build 0)  -->
<svg version="1.1" id="Capa_1" xmlns="http://www.w3.org/2000/svg" xmlns:xlink="http://www.w3.org/1999/xlink" x="0px" y="0px"
	 viewBox="0 0 150 150" enable-background="new 0 0 150 150" xml:space="preserve">
<g id="ic_1_">
	<g>
		<path fill="#E8E7E8" d="M81.4,76.6c4-2.2,6.7-6.5,6.7-11.4C88.1,57.9,82.2,52,75,52c-7.2,0-13.1,5.9-13.1,13.1
			c0,4.9,2.7,9.2,6.7,11.4c-6.5,2.6-11.1,8.9-11.1,16.2v2.9h2.9v-2.9c0-8,6.5-14.6,14.6-14.6c8,0,14.6,6.5,14.6,14.6v2.9h2.9v-2.9
			C92.5,85.4,87.9,79.1,81.4,76.6z M64.8,65.1c0-5.6,4.6-10.2,10.2-10.2c5.6,0,10.2,4.6,10.2,10.2c0,5.6-4.6,10.2-10.2,10.2
			C69.4,75.3,64.8,70.8,64.8,65.1z"/>
	</g>
</g>
<circle fill="none" stroke="#F6F6F7" stroke-width="4" stroke-miterlimit="10" cx="75" cy="75" r="73"/>
</svg>
