<svg xmlns="http://www.w3.org/2000/svg" viewBox="0 0 36 36"><defs><style>.cls-1{fill:none;}.cls-2{fill:#0089cf;}</style></defs><g id="Bounding_Box" data-name="Bounding Box"><rect class="cls-1" width="36" height="36"/></g><g id="Layer_1" data-name="Layer 1"><g id="_-Product-Icons" data-name="ðŸ”-Product-Icons"><g id="ic_fluent_keyboard_24_regular" data-name="ic fluent keyboard 24 regular"><path id="_-Color" data-name="ðŸŽ¨-Color" class="cls-2" d="M30.4,6.79a3.6,3.6,0,0,1,3.6,3.6V25.61a3.6,3.6,0,0,1-3.6,3.6H5.6A3.6,3.6,0,0,1,2,25.61V10.39a3.6,3.6,0,0,1,3.6-3.6Zm0,2.4H5.6a1.2,1.2,0,0,0-1.2,1.2V25.61a1.2,1.2,0,0,0,1.2,1.2H30.4a1.2,1.2,0,0,0,1.2-1.2V10.39A1.2,1.2,0,0,0,30.4,9.19ZM9.6,22H26.41a1.2,1.2,0,0,1,.16,2.39H9.6A1.2,1.2,0,0,1,9.44,22Zm15.61-5.6a1.6,1.6,0,1,1-1.6,1.6A1.6,1.6,0,0,1,25.21,16.4Zm-9.6,0A1.6,1.6,0,1,1,14,18,1.6,1.6,0,0,1,15.61,16.4Zm-4.8,0A1.6,1.6,0,1,1,9.21,18,1.6,1.6,0,0,1,10.81,16.4Zm9.6,0a1.6,1.6,0,1,1-1.6,1.6A1.59,1.59,0,0,1,20.41,16.4Zm-12-4.81A1.61,1.61,0,1,1,6.8,13.2,1.6,1.6,0,0,1,8.4,11.59Zm4.79,0a1.61,1.61,0,1,1-1.6,1.61A1.61,1.61,0,0,1,13.19,11.59Zm4.81,0a1.61,1.61,0,1,1-1.6,1.61A1.61,1.61,0,0,1,18,11.59Zm4.8,0a1.61,1.61,0,1,1-1.6,1.61A1.61,1.61,0,0,1,22.8,11.59Zm4.8,0A1.61,1.61,0,1,1,26,13.2,1.61,1.61,0,0,1,27.6,11.59Z"/></g></g></g></svg>